<svg width="24" height="24" viewBox="0 0 24 24" fill="none" xmlns="http://www.w3.org/2000/svg">
<rect width="24" height="24" rx="12" transform="matrix(4.37114e-08 1 1 -4.37114e-08 0 0)" fill="#011C0D" fill-opacity="0.4"/>
<path d="M11.5507 16.79C11.6178 16.7236 11.671 16.6448 11.7074 16.558C11.7437 16.4712 11.7624 16.3782 11.7624 16.2842C11.7624 16.1902 11.7437 16.0971 11.7074 16.0103C11.671 15.9235 11.6178 15.8447 11.5507 15.7784L8.46188 12.7144L17.2801 12.7144C17.4711 12.7144 17.6542 12.6392 17.7892 12.5053C17.9242 12.3713 18 12.1897 18 12.0003C18 11.811 17.9242 11.6293 17.7892 11.4954C17.6542 11.3615 17.4711 11.2863 17.2801 11.2863L8.46188 11.2863L11.5507 8.22111C11.6859 8.08696 11.7619 7.90502 11.7619 7.71531C11.7619 7.5256 11.6859 7.34366 11.5507 7.20951C11.4154 7.07536 11.232 7 11.0408 7C10.8495 7 10.6661 7.07536 10.5309 7.20951L6.21173 11.4939C6.14462 11.5603 6.09137 11.6391 6.05504 11.7259C6.0187 11.8127 6 11.9058 6 11.9997C6 12.0937 6.0187 12.1868 6.05504 12.2736C6.09137 12.3604 6.14462 12.4392 6.21173 12.5055L10.5309 16.79C10.5978 16.8565 10.6772 16.9094 10.7647 16.9454C10.8522 16.9814 10.946 17 11.0408 17C11.1355 17 11.2293 16.9814 11.3168 16.9454C11.4043 16.9094 11.4838 16.8565 11.5507 16.79Z" fill="white"/>
</svg>
